<svg width="277" height="67" viewBox="0 0 277 67" fill="none" xmlns="http://www.w3.org/2000/svg">
<path d="M100.8 52.408C99.644 52.408 98.726 52.068 98.046 51.388C97.3887 50.6853 97.06 49.7107 97.06 48.464V26.874L100.188 26.5V48.396C100.188 48.8947 100.267 49.2573 100.426 49.484C100.607 49.7107 100.902 49.824 101.31 49.824C101.741 49.824 102.126 49.756 102.466 49.62L103.282 51.796C102.534 52.204 101.707 52.408 100.8 52.408ZM120.519 52H117.833L117.595 49.212C116.915 50.3227 116.133 51.1387 115.249 51.66C114.365 52.1587 113.288 52.408 112.019 52.408C110.455 52.408 109.231 51.932 108.347 50.98C107.463 50.028 107.021 48.6793 107.021 46.934V34.082H110.149V46.594C110.149 47.818 110.364 48.6907 110.795 49.212C111.226 49.7107 111.928 49.96 112.903 49.96C114.648 49.96 116.144 48.9287 117.391 46.866V34.082H120.519V52ZM135.412 33.674C137.044 33.674 138.313 34.1613 139.22 35.136C140.149 36.1107 140.614 37.448 140.614 39.148V52H137.486V39.59C137.486 38.3207 137.248 37.4253 136.772 36.904C136.296 36.3827 135.593 36.122 134.664 36.122C133.712 36.122 132.873 36.394 132.148 36.938C131.423 37.482 130.743 38.264 130.108 39.284V52H126.98V34.082H129.666L129.938 36.734C130.573 35.782 131.355 35.034 132.284 34.49C133.236 33.946 134.279 33.674 135.412 33.674ZM158.972 47.818C158.972 48.5433 159.097 49.0873 159.346 49.45C159.595 49.79 159.969 50.0507 160.468 50.232L159.754 52.408C158.825 52.2947 158.077 52.034 157.51 51.626C156.943 51.218 156.524 50.5833 156.252 49.722C155.051 51.5127 153.271 52.408 150.914 52.408C149.146 52.408 147.752 51.9093 146.732 50.912C145.712 49.9147 145.202 48.6113 145.202 47.002C145.202 45.098 145.882 43.636 147.242 42.616C148.625 41.596 150.574 41.086 153.09 41.086H155.844V39.76C155.844 38.4907 155.538 37.584 154.926 37.04C154.314 36.496 153.373 36.224 152.104 36.224C150.789 36.224 149.18 36.5413 147.276 37.176L146.494 34.898C148.715 34.082 150.778 33.674 152.682 33.674C154.79 33.674 156.365 34.1953 157.408 35.238C158.451 36.258 158.972 37.72 158.972 39.624V47.818ZM151.628 50.062C153.419 50.062 154.824 49.1327 155.844 47.274V43.16H153.498C150.189 43.16 148.534 44.384 148.534 46.832C148.534 47.8973 148.795 48.702 149.316 49.246C149.837 49.79 150.608 50.062 151.628 50.062ZM173.828 33.674C175.46 33.674 176.729 34.1613 177.636 35.136C178.565 36.1107 179.03 37.448 179.03 39.148V52H175.902V39.59C175.902 38.3207 175.664 37.4253 175.188 36.904C174.712 36.3827 174.009 36.122 173.08 36.122C172.128 36.122 171.289 36.394 170.564 36.938C169.839 37.482 169.159 38.264 168.524 39.284V52H165.396V34.082H168.082L168.354 36.734C168.989 35.782 169.771 35.034 170.7 34.49C171.652 33.946 172.695 33.674 173.828 33.674ZM188.446 34.082V52H185.318V34.082H188.446ZM186.848 25.48C187.505 25.48 188.038 25.684 188.446 26.092C188.854 26.5 189.058 27.01 189.058 27.622C189.058 28.234 188.854 28.744 188.446 29.152C188.038 29.5373 187.505 29.73 186.848 29.73C186.213 29.73 185.692 29.5373 185.284 29.152C184.876 28.744 184.672 28.234 184.672 27.622C184.672 27.01 184.876 26.5 185.284 26.092C185.692 25.684 186.213 25.48 186.848 25.48ZM212.9 33.674C214.373 33.674 215.552 34.1727 216.436 35.17C217.32 36.1447 217.762 37.4707 217.762 39.148V52H214.634V39.59C214.634 37.278 213.795 36.122 212.118 36.122C211.234 36.122 210.486 36.3827 209.874 36.904C209.262 37.4027 208.604 38.196 207.902 39.284V52H204.774V39.59C204.774 37.278 203.935 36.122 202.258 36.122C201.351 36.122 200.592 36.3827 199.98 36.904C199.368 37.4253 198.722 38.2187 198.042 39.284V52H194.914V34.082H197.6L197.872 36.7C199.209 34.6827 200.932 33.674 203.04 33.674C204.15 33.674 205.091 33.9573 205.862 34.524C206.655 35.0907 207.222 35.884 207.562 36.904C208.264 35.8613 209.035 35.068 209.874 34.524C210.735 33.9573 211.744 33.674 212.9 33.674ZM230.798 33.674C233.314 33.674 235.263 34.5127 236.646 36.19C238.051 37.8673 238.754 40.1453 238.754 43.024C238.754 44.8827 238.437 46.526 237.802 47.954C237.167 49.3593 236.249 50.4587 235.048 51.252C233.847 52.0227 232.419 52.408 230.764 52.408C228.248 52.408 226.287 51.5693 224.882 49.892C223.477 48.2147 222.774 45.9367 222.774 43.058C222.774 41.1993 223.091 39.5673 223.726 38.162C224.361 36.734 225.279 35.6347 226.48 34.864C227.681 34.0707 229.121 33.674 230.798 33.674ZM230.798 36.19C227.693 36.19 226.14 38.4793 226.14 43.058C226.14 47.614 227.681 49.892 230.764 49.892C233.847 49.892 235.388 47.6027 235.388 43.024C235.388 38.468 233.858 36.19 230.798 36.19ZM257.249 52H254.563L254.325 49.212C253.645 50.3227 252.863 51.1387 251.979 51.66C251.095 52.1587 250.019 52.408 248.749 52.408C247.185 52.408 245.961 51.932 245.077 50.98C244.193 50.028 243.751 48.6793 243.751 46.934V34.082H246.879V46.594C246.879 47.818 247.095 48.6907 247.525 49.212C247.956 49.7107 248.659 49.96 249.633 49.96C251.379 49.96 252.875 48.9287 254.121 46.866V34.082H257.249V52ZM268.572 33.674C269.796 33.674 270.896 33.844 271.87 34.184C272.845 34.524 273.774 35.034 274.658 35.714L273.332 37.686C272.516 37.1647 271.734 36.7793 270.986 36.53C270.261 36.2807 269.49 36.156 268.674 36.156C267.654 36.156 266.85 36.3713 266.26 36.802C265.671 37.21 265.376 37.7767 265.376 38.502C265.376 39.2273 265.648 39.794 266.192 40.202C266.759 40.61 267.768 41.0067 269.218 41.392C271.213 41.8907 272.698 42.5707 273.672 43.432C274.67 44.2933 275.168 45.472 275.168 46.968C275.168 48.736 274.477 50.0847 273.094 51.014C271.734 51.9433 270.068 52.408 268.096 52.408C265.376 52.408 263.121 51.626 261.33 50.062L262.996 48.158C264.515 49.314 266.192 49.892 268.028 49.892C269.207 49.892 270.136 49.654 270.816 49.178C271.519 48.6793 271.87 48.0107 271.87 47.172C271.87 46.56 271.746 46.0727 271.496 45.71C271.247 45.3247 270.816 44.996 270.204 44.724C269.592 44.4293 268.697 44.1233 267.518 43.806C265.614 43.3073 264.232 42.6387 263.37 41.8C262.532 40.9613 262.112 39.896 262.112 38.604C262.112 37.6747 262.384 36.836 262.928 36.088C263.495 35.3173 264.266 34.728 265.24 34.32C266.238 33.8893 267.348 33.674 268.572 33.674Z" fill="#151818"/>
<circle cx="43.5" cy="40.5" r="23.5" fill="url(#paint0_radial)"/>
<path d="M31.5 64.5C52.8456 60.5645 64.6914 45.0452 56.5 18C63.822 24.9254 67.6685 39.8414 63.5 51.5C56.9899 63.6 41.479 67.2213 31.5 64.5Z" fill="url(#paint1_linear)" fill-opacity="0.18"/>
<circle cx="35.5" cy="26.5" r="2.5" fill="url(#paint2_radial)"/>
<circle cx="50.3329" cy="30.3329" r="4.82143" transform="rotate(6.45523 50.3329 30.3329)" fill="url(#paint3_radial)"/>
<circle cx="39.0935" cy="44.0935" r="3.70092" transform="rotate(6.45523 39.0935 44.0935)" fill="url(#paint4_radial)"/>
<circle cx="53.0861" cy="53.0861" r="4.59832" transform="rotate(6.45523 53.0861 53.0861)" fill="url(#paint5_radial)"/>
<circle cx="25.0538" cy="46.0537" r="2.76086" transform="rotate(6.45523 25.0538 46.0537)" fill="url(#paint6_radial)"/>
<path d="M18.5 29C16.5 32.5 16 35.9464 16 40.5C16 54.3071 27.1929 65 41 65C54.8071 65 66 53.8071 66 40C66 26.1929 54.8071 15 41 15C34.9479 15 30.5 17 26.5 19.5" stroke="#151818" stroke-width="3" stroke-linecap="round"/>
<circle cx="22" cy="24" r="2" fill="#151818"/>
<path fill-rule="evenodd" clip-rule="evenodd" d="M72.0526 0.552631C72.0526 0.247422 71.8052 0 71.5 0V0C71.1948 0 70.9474 0.247422 70.9474 0.552632V1.47369C70.9474 2.28758 70.2876 2.94738 69.4737 2.94738H68.5526C68.2474 2.94738 68 3.1948 68 3.50001V3.50001C68 3.80522 68.2474 4.05264 68.5526 4.05264H69.4737C70.2876 4.05264 70.9474 4.71243 70.9474 5.52632V6.44737C70.9474 6.75258 71.1948 7 71.5 7V7C71.8052 7 72.0526 6.75258 72.0526 6.44737V5.52632C72.0526 4.71243 72.7124 4.05264 73.5263 4.05264H74.4474C74.7526 4.05264 75 3.80522 75 3.50001V3.50001C75 3.1948 74.7526 2.94738 74.4474 2.94738H73.5263C72.7124 2.94738 72.0526 2.28758 72.0526 1.47369V0.552631Z" fill="#FC8702"/>
<path fill-rule="evenodd" clip-rule="evenodd" d="M13.8948 15.3947C13.8948 15.1767 13.718 15 13.5 15V15C13.282 15 13.1053 15.1767 13.1053 15.3947V16.0526C13.1053 16.634 12.634 17.1053 12.0526 17.1053H11.3947C11.1767 17.1053 11 17.282 11 17.5V17.5C11 17.718 11.1767 17.8947 11.3947 17.8947H12.0526C12.634 17.8947 13.1053 18.366 13.1053 18.9474V19.6053C13.1053 19.8233 13.282 20 13.5 20V20C13.718 20 13.8948 19.8233 13.8948 19.6053V18.9474C13.8948 18.366 14.366 17.8947 14.9474 17.8947H15.6053C15.8233 17.8947 16 17.718 16 17.5V17.5C16 17.282 15.8233 17.1053 15.6053 17.1053H14.9474C14.366 17.1053 13.8948 16.634 13.8948 16.0526V15.3947Z" fill="#D94432"/>
<path fill-rule="evenodd" clip-rule="evenodd" d="M73.0526 58.5526C73.0526 58.2474 72.8052 58 72.5 58V58C72.1948 58 71.9474 58.2474 71.9474 58.5526V59.4737C71.9474 60.2876 71.2876 60.9474 70.4737 60.9474H69.5526C69.2474 60.9474 69 61.1948 69 61.5V61.5C69 61.8052 69.2474 62.0526 69.5526 62.0526H70.4737C71.2876 62.0526 71.9474 62.7124 71.9474 63.5263V64.4474C71.9474 64.7526 72.1948 65 72.5 65V65C72.8052 65 73.0526 64.7526 73.0526 64.4474V63.5263C73.0526 62.7124 73.7124 62.0526 74.5263 62.0526H75.4474C75.7526 62.0526 76 61.8052 76 61.5V61.5C76 61.1948 75.7526 60.9474 75.4474 60.9474H74.5263C73.7124 60.9474 73.0526 60.2876 73.0526 59.4737V58.5526Z" fill="#5F4B8B"/>
<circle cx="2" cy="51" r="2" fill="#21BCA5"/>
<circle cx="33.5" cy="3.5" r="2" stroke="#0582CA"/>
<circle cx="78.5" cy="37.5" r="3" stroke="#21BCA5"/>
<circle cx="14" cy="60" r="1" fill="#D94432"/>
<circle cx="72" cy="24" r="1" fill="#0582CA"/>
<defs>
<radialGradient id="paint0_radial" cx="0" cy="0" r="1" gradientUnits="userSpaceOnUse" gradientTransform="translate(23.5 28) rotate(34.2404) scale(45.8222)">
<stop stop-color="#E9E013"/>
<stop offset="1" stop-color="#EC991C"/>
</radialGradient>
<linearGradient id="paint1_linear" x1="59" y1="25" x2="46" y2="63.5" gradientUnits="userSpaceOnUse">
<stop stop-color="#5B0606" stop-opacity="0"/>
<stop offset="1" stop-color="#5B0606"/>
</linearGradient>
<radialGradient id="paint2_radial" cx="0" cy="0" r="1" gradientUnits="userSpaceOnUse" gradientTransform="translate(38.8333 24.8333) rotate(156.801) scale(6.34648)">
<stop offset="0.552083" stop-color="#CC9D23" stop-opacity="0"/>
<stop offset="1" stop-color="#E2AF2A"/>
</radialGradient>
<radialGradient id="paint3_radial" cx="0" cy="0" r="1" gradientUnits="userSpaceOnUse" gradientTransform="translate(56.7615 27.1186) rotate(156.801) scale(12.2396)">
<stop offset="0.552083" stop-color="#E2AF2A" stop-opacity="0"/>
<stop offset="1" stop-color="#D5A11E"/>
</radialGradient>
<radialGradient id="paint4_radial" cx="0" cy="0" r="1" gradientUnits="userSpaceOnUse" gradientTransform="translate(44.0281 41.6263) rotate(156.801) scale(9.39513)">
<stop offset="0.552083" stop-color="#E2AF2A" stop-opacity="0"/>
<stop offset="1" stop-color="#D5A11E"/>
</radialGradient>
<radialGradient id="paint5_radial" cx="0" cy="0" r="1" gradientUnits="userSpaceOnUse" gradientTransform="translate(59.2172 50.0206) rotate(156.801) scale(11.6732)">
<stop offset="0.552083" stop-color="#E2AF2A" stop-opacity="0"/>
<stop offset="1" stop-color="#D5A11E"/>
</radialGradient>
<radialGradient id="paint6_radial" cx="0" cy="0" r="1" gradientUnits="userSpaceOnUse" gradientTransform="translate(28.7349 44.2132) rotate(156.801) scale(7.00868)">
<stop offset="0.552083" stop-color="#E2AF2A" stop-opacity="0"/>
<stop offset="1" stop-color="#D5A11E"/>
</radialGradient>
</defs>
</svg>
